<svg width="36" height="36" viewBox="0 0 36 36" fill="none" xmlns="http://www.w3.org/2000/svg">
<path d="M17.9698 10.3691C13.7689 10.3691 10.3125 13.7724 10.3125 18.0265C10.3125 22.2805 13.7158 25.6838 17.9698 25.6838C22.2239 25.6838 25.6271 22.2805 25.6271 18.0265C25.6271 13.7724 22.2239 10.3691 17.9698 10.3691ZM17.9698 20.9511C16.3214 20.9511 15.0452 19.6217 15.0452 18.0265C15.0452 16.4312 16.3746 15.1018 17.9698 15.1018C19.5651 15.1018 20.8945 16.4312 20.8945 18.0265C20.8945 19.6217 19.6183 20.9511 17.9698 20.9511Z" fill="#8A51F5"/>
<path opacity="0.8" d="M17.9686 27.6532C17.5432 27.6532 17.1709 27.6532 16.7455 27.6001L16.9051 26.4834C17.49 26.5365 18.0749 26.5897 18.6598 26.5365L18.7662 27.6532C18.5003 27.6532 18.2344 27.6532 17.9686 27.6532ZM19.1384 27.6001L19.0321 26.4834C19.617 26.4302 20.2019 26.2707 20.7869 26.1111L21.1591 27.1746C20.4147 27.3874 19.7765 27.4937 19.1384 27.6001ZM16.4265 27.5469C15.7883 27.4405 15.0971 27.281 14.5121 27.0151L14.9375 26.0048C15.4693 26.2175 16.0542 26.377 16.6392 26.4834L16.4265 27.5469ZM21.425 27.0151L21.0528 26.0048C21.5845 25.7921 22.1163 25.5262 22.648 25.2071L23.233 26.1111C22.648 26.4834 22.0099 26.8024 21.425 27.0151ZM14.1399 26.8556C13.555 26.5897 12.9169 26.2707 12.3851 25.8984L13.0232 24.9944C13.5018 25.3135 14.0335 25.6326 14.5653 25.8453L14.1399 26.8556ZM23.4988 25.9516L22.8607 25.0476C23.3393 24.7286 23.8179 24.3032 24.1901 23.8778L24.9878 24.6222C24.5624 25.154 24.0306 25.5794 23.4988 25.9516ZM12.1192 25.6857C11.5875 25.2603 11.1089 24.8349 10.6835 24.3032L11.4811 23.6119C11.8533 24.0373 12.2788 24.4627 12.7573 24.8349L12.1192 25.6857ZM25.2536 24.4095L24.4028 23.665C24.7751 23.2396 25.1473 22.7611 25.4132 22.2293L26.3703 22.7611C26.0513 23.346 25.679 23.8778 25.2536 24.4095ZM10.4708 24.0373C10.0454 23.5055 9.67314 22.9738 9.40727 22.3357L10.3644 21.8571C10.6303 22.3888 10.9494 22.8674 11.3216 23.346L10.4708 24.0373ZM26.583 22.442L25.6259 21.9102C25.8918 21.3785 26.1044 20.8467 26.264 20.2618L27.3275 20.5809C27.1148 21.219 26.9021 21.8571 26.583 22.442ZM9.19456 22.0166C8.92868 21.4317 8.71598 20.7936 8.55645 20.1023L9.61997 19.8364C9.72632 20.4213 9.93902 20.9531 10.2049 21.538L9.19456 22.0166ZM27.3807 20.2618L26.3172 19.9959C26.4767 19.411 26.5299 18.8261 26.5299 18.2411L27.6465 18.2943C27.6465 18.9324 27.5402 19.5705 27.3807 20.2618ZM8.50327 19.7832C8.39692 19.1983 8.34375 18.5602 8.34375 17.9752C8.34375 17.284 8.39692 16.6458 8.55645 16.0077L9.61997 16.2204C9.51361 16.8054 9.46044 17.3903 9.46044 17.9752C9.46044 18.507 9.51361 19.0388 9.61997 19.5705L8.50327 19.7832ZM26.5299 17.9221C26.5299 17.3371 26.4767 16.7522 26.3172 16.1673L27.3807 15.9546C27.5402 16.5927 27.5934 17.284 27.5934 17.9221H26.5299ZM9.67314 15.9014L8.60963 15.6355C8.76916 14.9974 8.98185 14.3593 9.30091 13.7744L10.3112 14.2529C10.0454 14.7847 9.83267 15.3696 9.67314 15.9014ZM26.264 15.8482C26.1044 15.2633 25.8918 14.7315 25.6259 14.1998L26.6362 13.7212C26.9553 14.3061 27.168 14.9442 27.3275 15.5823L26.264 15.8482ZM10.4176 13.9871L9.46044 13.4553C9.77949 12.8704 10.1517 12.2854 10.5771 11.8069L11.4279 12.4981C11.0557 12.9767 10.6835 13.4553 10.4176 13.9871ZM25.5195 13.9339C25.2536 13.4021 24.8814 12.9235 24.5092 12.4981L25.36 11.8069C25.7854 12.3386 26.1576 12.8704 26.4767 13.4553L25.5195 13.9339ZM11.6406 12.2854L10.843 11.541C11.2684 11.0624 11.8002 10.5838 12.3319 10.2116L12.97 11.1156C12.4383 11.4346 12.0129 11.8069 11.6406 12.2854ZM24.2965 12.2323C23.8711 11.8069 23.4457 11.3814 22.9671 11.0624L23.6052 10.1584C24.1369 10.5306 24.6687 11.0092 25.0941 11.4878L24.2965 12.2323ZM13.1827 10.9029L12.5446 9.99888C13.0764 9.62665 13.7145 9.30759 14.2994 9.04171L14.7248 10.0521C14.1931 10.2648 13.6613 10.5838 13.1827 10.9029ZM22.7544 10.8497C22.2758 10.5306 21.744 10.2648 21.2123 9.99888L21.6377 8.98854C22.2758 9.25442 22.8607 9.57347 23.3925 9.9457L22.7544 10.8497ZM15.0439 9.9457L14.6717 8.93536C15.3098 8.72266 15.9479 8.56313 16.586 8.45678L16.7455 9.5203C16.1606 9.57347 15.5757 9.733 15.0439 9.9457ZM20.8932 9.9457C20.3615 9.733 19.7765 9.62665 19.1916 9.5203L19.3511 8.40361C19.9892 8.50996 20.6805 8.66948 21.3186 8.88219L20.8932 9.9457ZM17.0646 9.46712L16.9582 8.35043C17.5963 8.29725 18.2876 8.29725 18.9789 8.35043L18.8725 9.46712C18.2344 9.41395 17.6495 9.41395 17.0646 9.46712Z" fill="#8A51F5"/>
<path opacity="0.6" d="M17.9721 29.7244C17.4403 29.7244 16.9085 29.6712 16.3768 29.618L16.4831 28.7672C16.9617 28.8204 17.4935 28.8736 17.9721 28.8736V29.7244ZM18.6633 29.7244L18.6102 28.8204C19.0887 28.7672 19.6205 28.7141 20.0991 28.6609L20.2586 29.5117C19.7269 29.618 19.1951 29.6712 18.6633 29.7244ZM15.6323 29.5117C15.1006 29.4053 14.5688 29.2458 14.0902 29.0863L14.3561 28.2355C14.8347 28.395 15.3133 28.5545 15.7919 28.6077L15.6323 29.5117ZM20.8967 29.3522L20.684 28.5013C21.1626 28.395 21.6412 28.2355 22.1198 28.0228L22.4388 28.8204C21.9602 29.0863 21.4285 29.2458 20.8967 29.3522ZM13.4521 28.8204C12.9735 28.6077 12.495 28.3418 12.0164 28.0759L12.4418 27.3315C12.8672 27.5974 13.3458 27.8101 13.7712 28.0228L13.4521 28.8204ZM23.0769 28.6077L22.7047 27.8101C23.1301 27.5974 23.6087 27.3315 23.9809 27.0656L24.4595 27.8101C24.0341 28.0759 23.5555 28.3418 23.0769 28.6077ZM11.4314 27.7569C11.006 27.4378 10.5806 27.1188 10.1552 26.7465L10.7402 26.1084C11.1124 26.4275 11.4846 26.7465 11.91 27.0124L11.4314 27.7569ZM25.0444 27.3847L24.5127 26.6934C24.8849 26.3743 25.3103 26.0553 25.6294 25.7362L26.2675 26.3743C25.8952 26.6934 25.4698 27.0656 25.0444 27.3847ZM9.62346 26.268C9.25123 25.8957 8.879 25.4703 8.55995 25.0449L9.25123 24.5132C9.57029 24.8854 9.88934 25.3108 10.2084 25.6299L9.62346 26.268ZM26.7461 25.8426L26.108 25.2576C26.427 24.8854 26.7461 24.5132 27.0119 24.0878L27.7564 24.5663C27.4373 24.9917 27.1183 25.4172 26.7461 25.8426ZM8.18772 24.46C7.86866 24.0346 7.60278 23.556 7.39008 23.0774L8.18772 22.7052C8.40042 23.1306 8.6663 23.6092 8.93217 23.9814L8.18772 24.46ZM28.1286 23.9814L27.3842 23.556C27.65 23.1306 27.8628 22.652 28.0755 22.2266L28.8731 22.5457C28.6072 23.0242 28.3945 23.5028 28.1286 23.9814ZM7.1242 22.4393C6.9115 21.9607 6.75197 21.429 6.59244 20.8972L7.44325 20.6845C7.5496 21.1631 7.70913 21.6417 7.92184 22.1203L7.1242 22.4393ZM29.0858 21.8544L28.235 21.5885C28.3945 21.1099 28.554 20.6313 28.6072 20.1528L29.458 20.3123C29.4048 20.844 29.2453 21.3758 29.0858 21.8544ZM6.43291 20.2059C6.32656 19.6742 6.27339 19.1424 6.22021 18.6107L7.1242 18.5575C7.1242 19.0361 7.23055 19.5678 7.28373 20.0464L6.43291 20.2059ZM29.6176 19.621L28.7667 19.5146C28.8199 19.0361 28.8731 18.5043 28.8731 18.0257H29.7771C29.7239 18.5575 29.7239 19.0892 29.6176 19.621ZM7.1242 17.9725H6.22021C6.22021 17.4408 6.27339 16.909 6.32656 16.3773L7.17737 16.4836C7.17737 16.9622 7.1242 17.494 7.1242 17.9725ZM28.8731 17.3876C28.8199 16.909 28.7667 16.3773 28.7136 15.8987L29.5644 15.7392C29.6707 16.2709 29.7239 16.8027 29.7771 17.3344L28.8731 17.3876ZM7.3369 15.8455L6.48609 15.686C6.59245 15.1542 6.75197 14.6225 6.91149 14.1439L7.76231 14.4098C7.54961 14.8884 7.44325 15.3669 7.3369 15.8455ZM28.5009 15.2606C28.3945 14.782 28.235 14.3034 28.0223 13.8248L28.8199 13.5058C29.0326 13.9844 29.1921 14.5161 29.3517 15.0479L28.5009 15.2606ZM7.97501 13.8248L7.17737 13.5058C7.39008 13.0272 7.60278 12.5486 7.92184 12.07L8.6663 12.4954C8.34724 12.9208 8.13454 13.3463 7.97501 13.8248ZM27.8096 13.2399C27.5969 12.8145 27.331 12.3359 27.0651 11.9637L27.8096 11.4851C28.1286 11.9105 28.3945 12.3891 28.6072 12.8677L27.8096 13.2399ZM8.93217 11.9637L8.18772 11.4851C8.50677 11.0597 8.82582 10.6343 9.19805 10.2089L9.83616 10.7938C9.51711 11.1129 9.25123 11.5383 8.93217 11.9637ZM26.6929 11.4319C26.3738 11.0597 26.0548 10.6343 25.7357 10.3152L26.3738 9.67713C26.7461 10.0494 27.1183 10.4748 27.4373 10.9002L26.6929 11.4319ZM10.3147 10.3152L9.67664 9.67713C10.0489 9.3049 10.4743 8.93267 10.8997 8.61361L11.4314 9.3049C11.0592 9.62395 10.687 9.94301 10.3147 10.3152ZM25.2571 9.88983C24.8849 9.57078 24.5127 9.25172 24.0873 8.98584L24.5659 8.24138C24.9913 8.56044 25.4167 8.87949 25.8421 9.25172L25.2571 9.88983ZM11.9632 8.93267L11.4846 8.18821C11.91 7.86915 12.3886 7.60327 12.8672 7.39057L13.2394 8.18821C12.814 8.40091 12.3886 8.66679 11.9632 8.93267ZM23.5023 8.61361C23.0769 8.34773 22.5984 8.13503 22.1729 7.92233L22.492 7.12469C22.9706 7.33739 23.4492 7.5501 23.9277 7.86915L23.5023 8.61361ZM13.8243 7.92233L13.5053 7.12469C13.9839 6.91199 14.5156 6.75246 15.0474 6.59293L15.2601 7.44375C14.7815 7.60327 14.3029 7.7628 13.8243 7.92233ZM21.588 7.70963C21.1094 7.5501 20.6308 7.39057 20.1523 7.33739L20.3118 6.48658C20.8436 6.59293 21.3753 6.75246 21.8539 6.91199L21.588 7.70963ZM15.8982 7.33739L15.7387 6.48658C16.2704 6.38023 16.8022 6.32705 17.3339 6.27388L17.3871 7.17787C16.8554 7.17787 16.3768 7.23104 15.8982 7.33739ZM19.5142 7.23104C19.0356 7.17787 18.5038 7.12469 18.0252 7.12469V6.2207C18.557 6.2207 19.0887 6.27388 19.6205 6.32706L19.5142 7.23104Z" fill="#8A51F5"/>
<path opacity="0.4" d="M18.1868 31.7998V31.1617C18.5591 31.1617 18.9845 31.1085 19.3567 31.1085L19.4099 31.7467C19.0377 31.7998 18.6123 31.7998 18.1868 31.7998ZM17.1765 31.7998C16.7511 31.7998 16.3257 31.7467 15.9535 31.6935L16.0598 31.0554C16.432 31.1085 16.8574 31.1617 17.2297 31.1617L17.1765 31.7998ZM20.4734 31.5871L20.3671 30.949C20.7393 30.8958 21.1647 30.7895 21.5369 30.6831L21.6964 31.3213C21.271 31.4276 20.8456 31.534 20.4734 31.5871ZM14.9431 31.4808C14.5177 31.3744 14.1455 31.2681 13.7201 31.1617L13.9328 30.5236C14.305 30.63 14.6772 30.7363 15.1026 30.8427L14.9431 31.4808ZM22.6536 31.0022L22.4409 30.3641C22.8131 30.2046 23.1854 30.0982 23.5576 29.8855L23.8235 30.4704C23.4513 30.7363 23.0258 30.8958 22.6536 31.0022ZM12.7629 30.7895C12.3907 30.63 12.0184 30.4704 11.6462 30.2577L11.9653 29.6728C12.3375 29.8323 12.6566 30.045 13.0288 30.1514L12.7629 30.7895ZM24.7275 30.0982L24.4084 29.5133C24.7275 29.3006 25.0997 29.0879 25.4188 28.8752L25.791 29.4069C25.4719 29.6728 25.0997 29.8855 24.7275 30.0982ZM10.7422 29.7792C10.37 29.5665 10.0509 29.3006 9.73189 29.0879L10.1041 28.5561C10.4232 28.7688 10.7422 29.0347 11.1145 29.2474L10.7422 29.7792ZM26.5886 28.822L26.1632 28.2902C26.4823 28.0244 26.8013 27.7585 27.0672 27.4926L27.5458 27.9712C27.2799 28.2902 26.9608 28.5561 26.5886 28.822ZM8.88109 28.3966C8.56203 28.1307 8.24297 27.8117 7.97709 27.5458L8.45568 27.0672C8.72156 27.3331 9.04061 27.6521 9.30649 27.918L8.88109 28.3966ZM28.2902 27.2799L27.8117 26.8545C28.0775 26.5354 28.3434 26.2696 28.5561 25.9505L29.0879 26.3227C28.822 26.6418 28.5561 26.9608 28.2902 27.2799ZM7.28581 26.8013C7.01993 26.4823 6.75405 26.1632 6.54135 25.791L7.0731 25.4187C7.28581 25.7378 7.55169 26.0569 7.76439 26.3759L7.28581 26.8013ZM29.6728 25.4719L29.1411 25.0997C29.3538 24.7806 29.5665 24.4084 29.726 24.0893L30.3109 24.4084C30.0982 24.7275 29.8855 25.0997 29.6728 25.4719ZM6.00959 24.887C5.79689 24.5148 5.58419 24.1425 5.42466 23.7703L6.00959 23.5044C6.16912 23.8766 6.38182 24.1957 6.54135 24.5679L6.00959 24.887ZM30.7363 23.4512L30.1514 23.1854C30.3109 22.8131 30.4704 22.4409 30.5768 22.0687L31.2149 22.2814C31.0554 22.6536 30.8959 23.079 30.7363 23.4512ZM5.05242 22.8663C4.8929 22.4941 4.78655 22.0687 4.6802 21.6964L5.3183 21.5369C5.42465 21.9091 5.53101 22.2814 5.69054 22.6536L5.05242 22.8663ZM31.4276 21.271L30.7895 21.1115C30.8958 20.7393 30.949 20.3139 31.0022 19.9416L31.6403 20.048C31.6403 20.4734 31.534 20.8988 31.4276 21.271ZM4.41432 20.6861C4.30796 20.2607 4.25479 19.8885 4.25479 19.4631L4.8929 19.4099C4.94608 19.7821 4.99925 20.2075 5.05242 20.5797L4.41432 20.6861ZM31.7998 19.0377L31.1617 18.9845C31.1617 18.6654 31.2149 18.3464 31.2149 17.9741C31.2149 17.921 31.2149 17.8146 31.2149 17.7614H31.853C31.853 17.8146 31.853 17.921 31.853 17.9741C31.853 18.3464 31.7998 18.6654 31.7998 19.0377ZM4.14844 18.3995C4.14844 18.24 4.14844 18.1337 4.14844 17.9741C4.14844 17.5487 4.14844 17.1233 4.20162 16.6979L4.83972 16.7511C4.78655 17.1233 4.78655 17.5487 4.78655 17.921C4.78655 18.0805 4.78655 18.1868 4.78655 18.2932L4.14844 18.3995ZM31.1086 16.8043C31.0554 16.432 31.0022 16.0066 30.949 15.6344L31.5871 15.5281C31.6403 15.9535 31.6935 16.3789 31.7467 16.7511L31.1086 16.8043ZM4.99925 15.8471L4.36115 15.7408C4.41432 15.3153 4.52067 14.9431 4.62702 14.5177L5.26513 14.6772C5.15878 15.0495 5.05243 15.4217 4.99925 15.8471ZM30.7363 14.6772C30.63 14.305 30.5236 13.9328 30.3641 13.5605L31.0022 13.3478C31.1617 13.7201 31.2681 14.1455 31.3744 14.5709L30.7363 14.6772ZM5.53101 13.7201L4.8929 13.5074C5.05243 13.1351 5.15878 12.7097 5.37148 12.3375L5.95642 12.6034C5.79689 12.9756 5.63736 13.3478 5.53101 13.7201ZM30.045 12.6566C29.8855 12.2843 29.726 11.9121 29.5133 11.593L30.0982 11.274C30.3109 11.6462 30.4704 12.0185 30.6832 12.3907L30.045 12.6566ZM6.38182 11.7526L5.79689 11.4335C6.00959 11.0613 6.22229 10.6891 6.435 10.37L6.96675 10.7422C6.80723 11.0613 6.59452 11.3803 6.38182 11.7526ZM28.9815 10.7422C28.7688 10.4232 28.5029 10.1041 28.2902 9.78507L28.822 9.35966C29.0879 9.67872 29.3538 10.0509 29.5665 10.37L28.9815 10.7422ZM7.55169 9.9446L7.01993 9.51919C7.28581 9.20014 7.55169 8.88108 7.81757 8.56203L8.29615 8.98743C8.08345 9.30649 7.81757 9.62554 7.55169 9.9446ZM27.6521 9.04061C27.3862 8.77473 27.1204 8.45567 26.8013 8.1898L27.2267 7.71121C27.5458 7.97709 27.8117 8.29615 28.1307 8.6152L27.6521 9.04061ZM9.04061 8.34932L8.61521 7.87074C8.93426 7.60486 9.25331 7.33898 9.57236 7.0731L9.99778 7.60486C9.62555 7.81757 9.30649 8.08344 9.04061 8.34932ZM26.0569 7.55169C25.7378 7.28581 25.4188 7.0731 25.0997 6.8604L25.4719 6.32864C25.8441 6.54135 26.1632 6.80723 26.4823 7.0731L26.0569 7.55169ZM10.7422 6.96675L10.37 6.435C10.7422 6.22229 11.0613 6.00959 11.4335 5.79689L11.7526 6.38182C11.4335 6.54135 11.0613 6.75405 10.7422 6.96675ZM24.2489 6.38182C23.8766 6.16912 23.5576 6.00959 23.1854 5.85006L23.4512 5.26513C23.8235 5.42466 24.1957 5.63736 24.5679 5.79689L24.2489 6.38182ZM12.6566 5.95641L12.3907 5.37148C12.7629 5.21195 13.1883 5.05243 13.5605 4.8929L13.7732 5.53101C13.3478 5.63736 12.9756 5.79689 12.6566 5.95641ZM22.2814 5.53101C21.9091 5.42466 21.5369 5.26513 21.1115 5.21195L21.271 4.57384C21.6964 4.6802 22.0687 4.78655 22.4941 4.94607L22.2814 5.53101ZM14.6772 5.21195L14.5177 4.57384C14.9431 4.46749 15.3154 4.36114 15.7408 4.30797L15.8471 4.94607C15.4749 5.05243 15.0495 5.15878 14.6772 5.21195ZM20.1543 4.99925C19.7821 4.94607 19.3567 4.8929 18.9845 4.83972L19.0377 4.20161C19.4631 4.25479 19.8885 4.30796 20.2607 4.36114L20.1543 4.99925ZM16.8043 4.83972L16.7511 4.20161C17.1765 4.14844 17.6019 4.14844 17.9741 4.14844V4.78655C17.6019 4.78655 17.2297 4.83972 16.8043 4.83972Z" fill="#8A51F5"/>
<path opacity="0.2" d="M17.9762 33.9265C17.8699 33.9265 17.8167 33.9265 17.7103 33.9265V33.5011C17.9762 33.5011 18.2953 33.5011 18.5611 33.5011V33.9265C18.4548 33.9265 18.2421 33.9265 17.9762 33.9265ZM16.3809 33.8201C16.0619 33.767 15.796 33.767 15.477 33.7138L15.5301 33.2884C15.796 33.3416 16.1151 33.3947 16.3809 33.3947V33.8201ZM19.9969 33.767L19.9437 33.3416C20.2096 33.2884 20.5286 33.2352 20.7945 33.182L20.8477 33.6074C20.5818 33.7138 20.3159 33.767 19.9969 33.767ZM14.2007 33.4479C13.9349 33.3947 13.6158 33.2884 13.3499 33.182L13.4563 32.7566C13.7222 32.863 14.0412 32.9162 14.3071 32.9693L14.2007 33.4479ZM22.2303 33.3416L22.1239 32.9162C22.3898 32.863 22.7089 32.7566 22.9747 32.6503L23.1343 33.0757C22.8152 33.182 22.4962 33.2884 22.2303 33.3416ZM12.0205 32.7566C11.7546 32.6503 11.4888 32.5439 11.1697 32.3844L11.3824 32.0122C11.6483 32.1185 11.9142 32.2781 12.18 32.3844L12.0205 32.7566ZM24.3573 32.5971L24.1978 32.1717C24.4637 32.0653 24.7295 31.9058 24.9954 31.7995L25.2081 32.1717C24.8891 32.3312 24.6232 32.4908 24.3573 32.5971ZM9.99985 31.7463C9.73398 31.5868 9.46809 31.4272 9.25539 31.2677L9.52127 30.8955C9.78715 31.055 9.99985 31.2145 10.2657 31.3741L9.99985 31.7463ZM26.3248 31.5336L26.1121 31.1614C26.378 31.0018 26.5907 30.8423 26.8566 30.6828L27.1224 31.055C26.8566 31.2145 26.5907 31.4272 26.3248 31.5336ZM8.13869 30.5233C7.92599 30.3637 7.66011 30.151 7.44741 29.9383L7.71329 29.6193C7.92599 29.832 8.13869 29.9915 8.40457 30.2042L8.13869 30.5233ZM28.186 30.2574L27.9201 29.9383C28.1328 29.7788 28.3455 29.5661 28.5582 29.3534L28.8773 29.6724C28.6114 29.832 28.3987 30.0447 28.186 30.2574ZM6.49025 28.9812C6.27755 28.7685 6.06484 28.5558 5.90531 28.2899L6.22437 28.024C6.43707 28.2367 6.5966 28.4494 6.8093 28.6621L6.49025 28.9812ZM29.7812 28.7153L29.4622 28.3962C29.6749 28.1835 29.8344 27.9708 30.0471 27.7049L30.3662 27.9708C30.2066 28.2367 29.9939 28.4494 29.7812 28.7153ZM5.0545 27.2795C4.89497 27.0137 4.73545 26.8009 4.57592 26.5351L4.94815 26.3224C5.10768 26.5882 5.26721 26.8009 5.42673 27.0668L5.0545 27.2795ZM31.1638 26.9073L30.7916 26.6414C30.9511 26.3755 31.1106 26.1628 31.2702 25.897L31.6424 26.1097C31.536 26.4287 31.3233 26.6946 31.1638 26.9073ZM3.88463 25.312C3.72511 25.0461 3.61876 24.7803 3.5124 24.5144L3.93781 24.3549C4.04416 24.6207 4.20369 24.8866 4.31004 25.1525L3.88463 25.312ZM32.3337 24.993L31.9614 24.7803C32.0678 24.5144 32.2273 24.2485 32.3337 23.9826L32.7591 24.1422C32.5464 24.408 32.44 24.7271 32.3337 24.993ZM2.98065 23.2913C2.87429 23.0255 2.76794 22.7064 2.71477 22.4405L3.14018 22.3342C3.24653 22.6001 3.2997 22.9191 3.40605 23.185L2.98065 23.2913ZM33.1313 22.8659L32.7059 22.7064C32.8122 22.4405 32.8654 22.1215 32.9718 21.8556L33.3972 21.962C33.344 22.281 33.2377 22.6001 33.1313 22.8659ZM2.39571 21.1111C2.34253 20.7921 2.28936 20.5262 2.23619 20.2072L2.66159 20.154C2.71476 20.4199 2.76794 20.7389 2.82112 21.0048L2.39571 21.1111ZM33.7162 20.6857L33.2908 20.6326C33.344 20.3667 33.3972 20.0476 33.3972 19.7817L33.8226 19.8349C33.7694 20.1008 33.7162 20.4199 33.7162 20.6857ZM2.07666 18.8778C2.07666 18.6119 2.07666 18.2928 2.07666 18.0269C2.07666 17.7079 2.07666 17.442 2.07666 17.123H2.50207C2.50207 17.3888 2.50207 17.7079 2.50207 17.9738C2.50207 18.2397 2.50207 18.5587 2.50207 18.8246L2.07666 18.8778ZM33.9289 18.4524H33.5035C33.5035 18.2928 33.5035 18.1333 33.5035 18.0269C33.5035 17.8674 33.5035 17.7611 33.5035 17.6015H33.9289C33.9289 17.7611 33.9289 17.8674 33.9289 18.0269C33.9289 18.1333 33.9289 18.2928 33.9289 18.4524ZM33.3972 16.2721C33.344 16.0063 33.344 15.6872 33.2908 15.4213L33.7162 15.3682C33.7694 15.6872 33.8226 15.9531 33.8226 16.2721H33.3972ZM2.66159 15.7936L2.23619 15.7404C2.28936 15.4213 2.34253 15.1555 2.39571 14.8364L2.82112 14.9428C2.76794 15.2086 2.71476 15.5277 2.66159 15.7936ZM32.9718 14.0919C32.9186 13.8261 32.8122 13.507 32.7059 13.2411L33.1313 13.0816C33.2377 13.3475 33.2908 13.6665 33.3972 13.9324L32.9718 14.0919ZM3.14018 13.6665L2.71477 13.5602C2.82112 13.2943 2.87429 12.9753 2.98065 12.7094L3.40605 12.8689C3.2997 13.0816 3.19335 13.4007 3.14018 13.6665ZM32.2805 12.0181C32.1741 11.7522 32.0678 11.4863 31.9083 11.2205L32.2805 11.0077C32.3868 11.2736 32.5464 11.5395 32.6527 11.8054L32.2805 12.0181ZM3.88463 11.5927L3.45923 11.4332C3.56558 11.1673 3.72511 10.9014 3.83146 10.6355L4.20369 10.8482C4.15052 11.0609 3.99098 11.3268 3.88463 11.5927ZM31.3233 10.0506C31.1638 9.7847 31.0043 9.572 30.8447 9.30612L31.217 9.04024C31.3765 9.30612 31.536 9.51883 31.6956 9.7847L31.3233 10.0506ZM4.94815 9.67835L4.57592 9.46565C4.73545 9.19977 4.89497 8.98707 5.10768 8.72119L5.47991 8.98707C5.2672 9.19977 5.10768 9.41247 4.94815 9.67835ZM30.0471 8.29578C29.8876 8.08308 29.6749 7.87038 29.4622 7.6045L29.7812 7.28544C29.9939 7.49815 30.1535 7.71085 30.3662 7.97673L30.0471 8.29578ZM6.22437 7.92355L5.90531 7.65767C6.11802 7.44497 6.27755 7.23227 6.49025 6.96639L6.8093 7.28544C6.64977 7.49815 6.43707 7.71085 6.22437 7.92355ZM28.5582 6.64733C28.3455 6.43463 28.1328 6.2751 27.9201 6.0624L28.186 5.74335C28.3987 5.95605 28.6645 6.11558 28.8773 6.32828L28.5582 6.64733ZM7.76647 6.38146L7.50059 6.0624C7.71329 5.8497 7.97917 5.69017 8.19187 5.47747L8.45775 5.8497C8.24505 6.00923 7.97917 6.16875 7.76647 6.38146ZM26.8566 5.31794C26.6439 5.15841 26.378 4.99889 26.1121 4.83936L26.3248 4.46713C26.5907 4.62666 26.8566 4.78618 27.0693 4.94571L26.8566 5.31794ZM9.52127 5.05206L9.25539 4.67983C9.52127 4.5203 9.78715 4.36078 9.99985 4.20125L10.2126 4.57348C9.99985 4.73301 9.73397 4.89253 9.52127 5.05206ZM24.9954 4.14807C24.7295 4.04172 24.4637 3.8822 24.1978 3.77584L24.3573 3.35044C24.6232 3.45679 24.8891 3.61632 25.1549 3.72267L24.9954 4.14807ZM11.4356 3.98855L11.2229 3.61632C11.4888 3.50996 11.7547 3.35044 12.0737 3.24409L12.2332 3.66949C11.9673 3.72267 11.7015 3.82902 11.4356 3.98855ZM22.9747 3.29726C22.7089 3.19091 22.443 3.13773 22.1239 3.03138L22.2303 2.60598C22.4962 2.65915 22.8152 2.7655 23.0811 2.87186L22.9747 3.29726ZM13.4563 3.19091L13.3499 2.7655C13.6158 2.65915 13.9349 2.60598 14.2007 2.5528L14.3071 2.97821C14.0412 3.03138 13.7222 3.08456 13.4563 3.19091ZM20.8477 2.7655C20.5818 2.71233 20.2628 2.65915 19.9969 2.60598L20.0501 2.18057C20.3691 2.23375 20.635 2.28692 20.954 2.3401L20.8477 2.7655ZM15.5833 2.71233L15.5301 2.28692C15.8492 2.23375 16.1151 2.18057 16.4341 2.18057L16.4873 2.60598C16.1682 2.60598 15.9024 2.65915 15.5833 2.71233ZM18.6675 2.49962C18.4548 2.49962 18.1889 2.49962 17.9762 2.49962C17.923 2.49962 17.8699 2.49962 17.7635 2.49962V2.07422C17.8167 2.07422 17.923 2.07422 17.9762 2.07422C18.1889 2.07422 18.4548 2.07422 18.6675 2.07422V2.49962Z" fill="#8A51F5"/>
</svg>
